<svg xmlns="http://www.w3.org/2000/svg" xmlns:xlink="http://www.w3.org/1999/xlink" viewBox="0 0 500 500.01"><defs><style>.cls-1{fill:none;}.cls-2{isolation:isolate;}.cls-3{fill:#ffcf5c;}.cls-4{clip-path:url(#clip-path);}.cls-5{fill:#231f20;}.cls-6{fill:#aa7f63;}.cls-7{fill:#f7c6aa;}.cls-8,.cls-9{fill:red;}.cls-8{opacity:0.11;}.cls-9{opacity:0.17;}.cls-10{fill:#191515;}.cls-11{fill:#020000;}.cls-12{fill:#434344;}.cls-13{fill:#1c1c1c;}.cls-14,.cls-18,.cls-19,.cls-25{mix-blend-mode:multiply;}.cls-15{fill:#2b2b2b;}.cls-16{fill:#b1b5ba;}.cls-17,.cls-20{fill:#fff;}.cls-17{opacity:0.6;mix-blend-mode:overlay;}.cls-18{fill:#f4caab;}.cls-19{fill:#eec6ac;opacity:0.7;}.cls-21{fill:#957252;}.cls-22{fill:#7b92a6;}.cls-23{fill:#332c26;}.cls-24{fill:#0a0a0a;}.cls-25,.cls-28,.cls-33{opacity:0.4;}.cls-26{fill:#333332;}.cls-27{fill:#a5765d;}.cls-28{fill:#ffd3d1;}.cls-28,.cls-33{mix-blend-mode:screen;}.cls-29{fill:#ed7174;}.cls-30{fill:#af4456;}.cls-31{opacity:0.24;}.cls-32{fill:#1e1915;opacity:0.25;}.cls-33{fill:#fdd1cf;}</style><clipPath id="clip-path"><circle class="cls-1" cx="250" cy="250" r="250"/></clipPath></defs><g class="cls-2"><g id="Layer_2" data-name="Layer 2"><g id="Layer_1-2" data-name="Layer 1"><circle class="cls-3" cx="250" cy="250" r="250"/><g class="cls-4"><path class="cls-5" d="M115.13,207.63S77.64,91.91,225.12,67.35c97.47-16.25,164.31,45.36,164.31,101.87C387,215,374.5,245.49,395.36,269.71c27.16,31.5,39.06,44.19,35.87,72.74-17.44,7.93-22.2,6.35-22.2,6.35l-11.89-27s4.76,19.81,4.76,30.13L375,359.1s-6.37-15.86-11.9-26.16c3.17,19,2.31,24.8,2.31,24.8l-39.27,4s-1.81-21.89-9.23-30.51c3.25,20.81,2.68,30.9,2.68,30.9s-125.19-1.46-195.33-14.55c-6.55-17.25-6-33.32-3.57-39.84-10.14,18.42-4.76,41.62-4.76,41.62s-17.83,1.78-32.12-16.06c-7.14-12.49-1.19-35.68-1.19-35.68s-10.1,22-8.31,33.89c-11.89-4.75-18.44-22.6-6.55-38.64S119.17,238.91,115.13,207.63Z"/><path d="M320.1,362.25h0c-1.24,0-126-1.64-195.49-14.58a1,1,0,0,1-.67-.57,77.37,77.37,0,0,1-5.12-32.44c-5.38,16.26-1.55,33.52-1.5,33.71a1,1,0,0,1-.13.74,1,1,0,0,1-.63.36s-.55,0-1.48,0c-4.31,0-19.22-1.18-31.44-16.44-4.51-7.92-4-19.71-3-27.71-2.71,7.32-5.92,17.95-5,25a.66.66,0,0,1,.11.39.91.91,0,0,1-.93.89h0a1.43,1.43,0,0,1-.35-.06c-5.86-2.34-10.5-7.78-12.41-14.52-2.34-8.3-.35-17.59,5.5-25.49,2.31-3.13,5.63-7.05,9.49-11.57,16.31-19.2,40.94-48.21,37.76-73.05-.11-.3-14.19-45.08,9.81-84.61,17.91-29.43,51.85-48.5,100.88-56.68A191.83,191.83,0,0,1,256.88,63c37.31,0,71.82,11.93,97.21,33.63,23.36,20,36.75,46.12,36.75,71.78-.64,12.42-2.06,23.87-3.28,34-3.48,28.17-5.95,48.54,9,65.92l2.65,3.08c25.08,29.09,36.55,42.34,33.44,70.35a1,1,0,0,1-.53.71c-17.59,8-22.44,6.52-22.85,6.39a.93.93,0,0,1-.53-.5l-8.32-18.85c1.35,6.63,2.9,15.66,2.9,21.66a.92.92,0,0,1-.66.86l-27,7.14a.84.84,0,0,1-1-.52c-.06-.14-4.61-11.5-9.33-21.13,2.14,14.6,1.51,19.35,1.49,19.57a1,1,0,0,1-.79.76l-39.28,4a.89.89,0,0,1-.66-.22.82.82,0,0,1-.32-.6c0-.2-1.5-17.32-6.91-26.89,2.6,18.07,2.12,26.88,2.1,27.28A.86.86,0,0,1,320.1,362.25ZM125.43,346c66.32,12.28,182.54,14.26,193.81,14.45,0-2.84,0-12.75-2.71-29.88a.88.88,0,0,1,.5-.94.87.87,0,0,1,1,.23c6.77,7.83,8.95,25.8,9.39,30.11l37.65-3.83c.09-2,.11-8.79-2.39-23.89a.87.87,0,0,1,.58-1,.84.84,0,0,1,1.07.41c4.84,9,10.32,22.27,11.65,25.52l25.53-6.75c-.19-10.26-4.69-29.06-4.74-29.24a.93.93,0,0,1,.58-1.06.9.9,0,0,1,1.1.49l11.71,26.53a7.09,7.09,0,0,0,.72,0c2.38,0,8.09-.79,20-6.17,2.85-26.86-7.73-39.13-33.07-68.5l-2.65-3.06c-15.49-18-12.81-39.76-9.43-67.31,1.25-10.07,2.64-21.49,3.27-33.8,0-50-53.1-103.59-132.17-103.59a189.41,189.41,0,0,0-31.09,2.63c-48.51,8.08-82,26.88-99.62,55.85-23.6,38.8-9.76,82.83-9.63,83.28,3.31,25.81-21.63,55.17-38.14,74.6-3.82,4.5-7.13,8.4-9.4,11.49-5.6,7.55-7.45,16-5.21,23.92a20.35,20.35,0,0,0,10,12.74c-.82-12.24,8.17-31.94,8.57-32.8a.87.87,0,0,1,1.1-.48.91.91,0,0,1,.56,1.06c-.06.23-5.77,23,1.1,35C97,347,111.7,347.85,115.35,347.73c-.85-4.76-3.85-24.9,5.05-41.2a.94.94,0,0,1,1.17-.4.92.92,0,0,1,.47,1.12C119.9,313.09,119,328.72,125.43,346Z"/><path class="cls-6" d="M222.77,358.84c-.21-.18-.48-18-.48-18.3v-9.8a.79.79,0,0,1,.26-.63.91.91,0,0,1,.66-.27l33.6,1.48a1,1,0,0,1,.85.87l.3,8.33c0,.34,1.19,19.17.89,19.35Zm1.29-18.7,12.31,10.62L256.15,340l-.24-6.94-31.85-1.4Z"/><polygon class="cls-7" points="257.82 358.84 256.76 332.23 223.16 330.74 223.8 357.81 257.82 358.84"/><path class="cls-7" d="M175.35,369.15s56.44-30.25,140.56,1.48c0,0,18.47,6.24,58.59,96.37a249.88,249.88,0,0,1-44,20c-43.34,14.45-112.86,14.37-158,1-27-8-53-23.16-53-24C119.5,420.43,141.07,382.31,175.35,369.15Z"/><path class="cls-8" d="M120,195.71S121.1,112.36,171.9,88s141.51-18.58,174.55,12.78,39,71.94,33.28,91.4c0,0-4.78,3.73-21.28,0,0,0-9.87-62.24-28.64-68.87s7.73,53,7.73,53-47.49-23.19-54.11-57.42c0,0-25.4,34.23-68.47,47.48,0,0,34.55-23.82,24.3-37.55,0,0-40.49,34.07-60.74,40.86,0,0,22.09-23.19,16.57-33.13,0,0-24.49,25.47-37.55,29.82,0,0,13.45-34.92,3.5-32.08-23.38,6.68-34.18,61.37-34.18,61.37Z"/><path class="cls-8" d="M102.93,260.46S64.78,296.2,67,308.35s3.15,12.76,3.15,12.76,1.27-29.32,18.94-30.43c0,0-14.62,45.94,22.5,53.34,0,0-5.37-38.64,12.83-44.51,2.87-.92-4.41,30.92,3.32,40.86l68.12,11L199.16,335s-58.18-25.52-63.7-45.39S102.93,260.46,102.93,260.46Z"/><path class="cls-9" d="M361.66,269.59s-5,34.34-32.21,46.49-57.12,17.52-57.12,17.52l.26,22.23h34.94s6-20.56,1.41-23,11-8.26,11-8.26,12.46,23.44,9.51,29.55,30.43-3.7,30.43-3.7,2.27-22.87-2.31-25.85,7.38-11.71,20.73,23.57l18.89-2.78s-4.44-24.88-3.34-30.41,10.72,3.38,20.82,23.22l13.81-4.59s-6.62-33.09-22.83-41.87-21.6-30.37-21.6-30.37Z"/><path class="cls-10" d="M368.84,450.75a202.61,202.61,0,0,0-21.49-45.88C333.72,383.51,313.28,361.93,285,358c0,0-.85-5.28-5.45-5.45s-6.64,4.6-6.64,4.6,4.2-1.37,4.72,4.08c2.13,22.89-11.7,34.93-33.51,36.63s-35.6-11.24-35.43-28.27,4.64-12.74,4.64-12.74-2.3-5.24-6.26-3.45a10.54,10.54,0,0,0-5.24,6S173.12,364,161,372c-7.54,5-16.35,15.33-25.45,31.51A282.87,282.87,0,0,0,119,439.25s-8,1.7-7.16,6,18.39,20.44,51.44,21.45c0,0-.81,6.46-1.74,17.33,23.62,10.43,145.55,9.76,166,4-.38-3.64-.34-4.43-.83-8.38,0,0,20.45-1.53,34.76-11.24S372.42,451.51,368.84,450.75Z"/><path class="cls-11" d="M370,450.78c-1.2-4-2.7-8-4.25-11.94a207.62,207.62,0,0,0-13.34-27.61c-9.47-16.31-21.59-31.85-37.5-42.31a72.59,72.59,0,0,0-29.57-11.37l.85.47a6.83,6.83,0,0,0-6.12-5.91,8.25,8.25,0,0,0-8.28,4.9c-.32.75,1.66.59,2,.49-.33.11.29,0,.32,0a2.16,2.16,0,0,1,1.52,1c1.38,1.92,1.1,5.19,1.1,7.43A33.94,33.94,0,0,1,274,379.69c-3.67,8.12-11.08,13.37-19.47,15.84-9.78,2.88-21.2,3.12-30.4-1.73A26.58,26.58,0,0,1,210,372.1a47.44,47.44,0,0,1,.33-9.3,12.76,12.76,0,0,1,1.38-5.11,5.58,5.58,0,0,1,.8-.87s.08,0-.14,0l-.39,0,.19.11a.7.7,0,0,1,.2.15c.33.32,2.47.39,2.16-.32-1.2-2.69-3.79-4.61-6.82-4.11-3.28.54-6,3.67-7,6.74l.59-.39c-4,.63-7.93,1.45-11.85,2.33a132.29,132.29,0,0,0-22.05,6.62,41.33,41.33,0,0,0-8.72,4.73,54.45,54.45,0,0,0-8,7.34c-6.94,7.62-12.49,16.49-17.42,25.51a291,291,0,0,0-15.43,33.58l.55-.27c-2.75.59-7.72,2.22-7.81,5.66,0,2.13,2.07,4.1,3.45,5.45,6.76,6.61,16,10.75,25,13.42a95.51,95.51,0,0,0,24.27,3.78l-1.16-.49c-.73,5.76-1.25,11.55-1.75,17.33,0,.16.23.29.34.34a49,49,0,0,0,9.73,2.81c4.71,1,9.47,1.63,14.24,2.18,12.37,1.45,24.82,2.16,37.25,2.64,14.06.55,28.14.73,42.21.63,12.56-.09,25.14-.4,37.68-1.13,8.18-.48,16.6-.87,24.63-2.62.57-.12,1.13-.26,1.69-.41.15-.05.61-.14.59-.4-.29-2.79-.49-5.59-.83-8.38l-.87.44a86.36,86.36,0,0,0,21.42-4.63,57.79,57.79,0,0,0,16.4-8.51c3.46-2.65,7.68-6.36,8.26-11a4.9,4.9,0,0,0-3.62-5.6c-.37-.09-1.33-.23-1.61.14s0,.55.41.65c1.89.43,2.66,2.78,2.49,4.59-.43,4.33-4.4,7.91-7.59,10.41-8.51,6.65-19.15,10.12-29.66,12a71,71,0,0,1-7.11,1c-.18,0-.91.12-.87.44.34,2.79.54,5.58.82,8.38l.59-.4a57.27,57.27,0,0,1-8.53,1.51c-4.44.54-8.91.9-13.37,1.2-12,.81-23.94,1.15-35.93,1.3q-20.77.26-41.57-.38c-12.61-.4-25.23-1-37.79-2.31-5-.5-10-1.11-15-2a65.47,65.47,0,0,1-10.54-2.52c-.63-.22-1.25-.46-1.85-.73l.34.34c.49-5.78,1-11.57,1.74-17.32.05-.42-1-.49-1.17-.5-14.28-.47-29-3.86-41.08-11.84-3-2-6.15-4.33-8.26-7.32a3.63,3.63,0,0,1-.86-3.29c.71-2.21,3.6-3.27,5.61-3.86.75-.22,1.27-.18,1.61-1,1-2.28,1.84-4.63,2.8-6.92q2.76-6.62,5.81-13.11a211.93,211.93,0,0,1,12.69-23.38A97.69,97.69,0,0,1,156.12,377a43.48,43.48,0,0,1,14.77-9.14c9.91-3.84,20.49-6.21,31-8l.61-.1a.68.68,0,0,0,.59-.39,9.58,9.58,0,0,1,4.88-5.68c1.92-.84,3.62,1.67,4.3,3.2l2.16-.32a3.61,3.61,0,0,0-3.61-.48,3.71,3.71,0,0,0-1.83,2.23,22.23,22.23,0,0,0-1.2,6.42c-.43,5.59-.17,11.13,2.07,16.33A26.68,26.68,0,0,0,219,392.34c9.55,6.76,22.27,7.23,33.36,4.86,9.58-2.05,18.77-7.06,23.35-16.06a33.77,33.77,0,0,0,3.38-15.05c0-2.45.32-6-1.32-8a5,5,0,0,0-4.4-1.5,5.63,5.63,0,0,0-1.22.25l2,.49c.91-2.1,3.18-4.56,5.67-4.27,2.28.28,3.76,2.87,4.11,5,.06.34.59.43.86.47,18.88,2.68,35,13.86,47.48,27.84,13,14.55,22.74,32,30.16,49.95a149.49,149.49,0,0,1,5.31,14.49C367.88,451.47,370.16,451.26,370,450.78Z"/><path class="cls-12" d="M368.84,450.75a202.61,202.61,0,0,0-21.49-45.88c-9.72,11.85-35.24,16-35.24,16s-7.66,15.58-66.43,17.27-74.86-15-74.86-15c-6.64-1.29-7.92-5.12-7.92-5.12-21.71-3.05-27.32-14.54-27.32-14.54A282,282,0,0,0,119,439.25s-8,1.7-7.16,6,18.39,20.44,51.44,21.45c0,0-.81,6.46-1.74,17.33,28,9.46,37.65,12.19,64,15,5.79.62,17.82.39,23.64.5,25.36.5,57.36-4.5,78.36-12.5-.38-3.64-.34-3.43-.83-7.38,0,0,20.45-1.53,34.76-11.24S372.42,451.51,368.84,450.75Z"/><path class="cls-13" d="M370,450.7a180.2,180.2,0,0,0-12.85-30.82q-4-7.72-8.64-15.07a1.88,1.88,0,0,0-2.26-.14c-5.72,6.88-14.93,10.46-23.26,13-3.1.94-6.25,1.74-9.43,2.39-.71.14-2,.14-2.59.68-.29.29-.5.74-.77,1.06a16.15,16.15,0,0,1-2.06,2,39.23,39.23,0,0,1-10.59,5.78,107.74,107.74,0,0,1-22.6,5.63,249,249,0,0,1-38.1,2.58,192.32,192.32,0,0,1-33.46-2.67,98.5,98.5,0,0,1-20.1-5.54,45.46,45.46,0,0,1-9.55-5.05c-.59-.42-1.12-.9-1.69-1.34a1,1,0,0,0-.18-.18,5.73,5.73,0,0,0-1.67-.49,12.18,12.18,0,0,1-2.19-.79,9.31,9.31,0,0,1-2.51-1.69,5.5,5.5,0,0,1-1.44-2c-.08-.24-.6-.35-.8-.38-9.29-1.34-19.88-4.78-25.63-12.77a10.59,10.59,0,0,1-.89-1.39c-.25-.51-2-.66-2.26-.15a286.82,286.82,0,0,0-16.68,35.87l.61-.37c-2.75.6-7.73,2.19-7.82,5.64-.06,2.13,2.05,4.1,3.43,5.45,6.74,6.62,16,10.78,24.94,13.45a96,96,0,0,0,24.27,3.8l-1.14-.54c-.73,5.76-1.25,11.55-1.74,17.33,0,.25.38.38.55.44,10.77,3.64,21.56,7.33,32.62,10a245,245,0,0,0,31.06,5,141.91,141.91,0,0,0,14.72.55c5,0,10,.12,14.95.08a242.94,242.94,0,0,0,36.51-3.15c12.73-2,25.49-4.89,37.57-9.47.1,0,.38-.14.36-.31-.25-2.46-.52-4.92-.83-7.37l-.88.39a86.83,86.83,0,0,0,21.43-4.6,57.55,57.55,0,0,0,16.76-8.79c3.34-2.6,7.35-6.21,7.9-10.69a5,5,0,0,0-3.87-5.69c-1-.23-2.24.51-.68.87s2.42,2.95,2.21,4.68c-.54,4.32-4.51,7.88-7.73,10.37-8.52,6.59-19.13,10.05-29.62,11.94-2.32.42-4.78.8-7,1-.17,0-.93.08-.89.4.3,2.46.57,4.91.83,7.38l.36-.31a181.68,181.68,0,0,1-32.61,8.59A246,246,0,0,1,257.76,499c-5,.14-10,0-15,0s-10,0-15-.28c-5.38-.34-10.77-1.12-16.1-1.89-4.74-.69-9.45-1.52-14.12-2.56-12-2.67-23.72-6.69-35.37-10.63l.55.44c.5-5.78,1-11.56,1.74-17.32.06-.42-.93-.54-1.14-.54-15.19-.51-31.26-4.26-43.6-13.58a32.47,32.47,0,0,1-4.63-4.14,8.7,8.7,0,0,1-2-3c-.8-2.62,2.21-4.3,4.22-5.08.48-.18,1-.35,1.48-.5l.76-.2c.72-.25.72-.58,1-1.33.6-1.51,1.2-3,1.82-4.51a269.7,269.7,0,0,1,14.39-30.17l-2.26-.14a16.65,16.65,0,0,0,3.33,4.23,35.49,35.49,0,0,0,12.38,7.6,58.34,58.34,0,0,0,12.4,3.1l-.8-.38c.7,2,3,3.5,4.83,4.31a11.84,11.84,0,0,0,3,1c.54.06.28,0,.2-.05.09.07.17.16.26.24a23.41,23.41,0,0,0,4.35,3c8.64,5.09,18.77,7.66,28.56,9.38,20.06,3.52,40.94,3.4,61.16,1.5,13.23-1.24,27.17-3.22,39.28-9a32.43,32.43,0,0,0,7.41-4.71,14.37,14.37,0,0,0,1.65-1.66c.18-.21.63-.63.67-.92a.47.47,0,0,1,.07-.12l-.55.24a88.25,88.25,0,0,0,9.47-2.17,73.92,73.92,0,0,0,18-7.27,31.34,31.34,0,0,0,8.31-6.8l-2.26-.14a199.43,199.43,0,0,1,20.48,42.76c.35,1,.7,2.08,1,3.13C367.88,451.41,370.19,451.42,370,450.7Z"/><path d="M172.09,421s-.14.93-.4,2.56-.64,4-1.12,6.75-1,6-1.69,9.47-1.21,7.18-1.83,10.9c-.34,1.83-.67,3.68-1,5.5s-.71,3.59-.91,5.34c-.47,3.49-1,6.73-1.47,9.52s-.89,5.1-1.17,6.72-.51,2.56-.51,2.56l.11-2.59c.11-1.66.2-4,.44-6.83s.46-6.1.82-9.64c.15-1.76.42-3.57.75-5.41s.63-3.68.94-5.54c.69-3.71,1.34-7.43,2.08-10.87s1.66-6.65,2.33-9.4,1.38-5,1.85-6.57S172.09,421,172.09,421Z"/><path d="M162,415.22s.33,1.75.75,4.3c.2,1.27.44,2.76.7,4.36s.56,3.25.81,4.94.65,3.36,1,4.92.74,3,1,4.24c.84,2.39,1.26,4.13,1.26,4.13a42.78,42.78,0,0,1-2.37-3.71c-.53-1.2-1.09-2.64-1.66-4.2s-.85-3.3-1.23-5c-.22-1.73-.54-3.47-.6-5.11s-.14-3.16-.08-4.47A28.51,28.51,0,0,1,162,415.22Z"/><g class="cls-14"><path class="cls-15" d="M328,483c-.12-1.78-.08-3.74-.36-5.78s-.49-4.19-.76-6.42-.6-4.53-.91-6.85q-.69-3.48-1.4-7c-.53-2.33-.94-4.7-1.55-7s-1.27-4.5-1.9-6.66c-.31-1.07-.58-2.14-.92-3.16l-1.08-3-2-5.45c-1.37-3.33-2.57-6.06-3.53-7.93s-1.53-2.91-1.53-2.91.46,1.1,1.17,3.07c.37,1,.83,2.15,1.27,3.54s1,2.93,1.54,4.61,1.06,3.56,1.64,5.51,1.17,4,1.69,6.18,1.12,4.39,1.71,6.65,1,4.61,1.46,6.93,1,4.63,1.47,6.92.71,4.59,1.07,6.78.72,4.32,1.06,6.33.47,3.95.7,5.72c.22,2.24.39,3.21.61,4.9.23-.11.8-.86,1-1A35,35,0,0,1,328,483Z"/></g><g class="cls-14"><path class="cls-15" d="M178.61,399.91s-11.75,31.94-13.87,23.75A117.69,117.69,0,0,1,162,404.89c-7.79,28.36,4.62,60.67-14.24,57s-32.11-13.66-31.21-17.49,10.6,0,10.6,0-4.35-8.45,7.21-32.2c15.06-31,34.07-44,34.07-44A43,43,0,0,0,161,372c-7.54,5-16.35,15.33-25.45,31.51A282.87,282.87,0,0,0,119,439.25s-8,1.7-7.16,6,18.39,20.44,51.44,21.45c0,0-.78,8-1.71,18.86q5.52,1.5,11.05,2.84C169.72,443.69,178.61,399.91,178.61,399.91Z"/></g><g class="cls-14"><path class="cls-15" d="M368.84,450.75a202.61,202.61,0,0,0-21.49-45.88c-12.71-19.93-31.37-40-56.75-45.83,1.78.66,32.58,12.44,52.18,44.45,20.18,32.95,20.44,49.71,20.44,49.71,6.64-1.87,8.21,4.55-1,11.09S340.87,477.11,332.56,449s-26.58-48-26.58-48,12.3,43.81,9.52,90.07c4.35-1,7.67-1.78,12-3-.38-3.64-.34-4.43-.83-8.38,0,0,20.45-1.53,34.76-11.24S372.42,451.51,368.84,450.75Z"/></g><g class="cls-14"><path class="cls-16" d="M163.23,466.84c-.12,1.14-.85,8.7-1.7,18.69l1,.26C162.47,475.2,163.12,468,163.23,466.84Z"/></g><g class="cls-14"><path class="cls-16" d="M326.67,476.62c-.33,3.86-.58,7.88-.81,12L328,488Q327.4,482.56,326.67,476.62Z"/></g><path class="cls-17" d="M190.33,390.59s-13.75,51.14-6.86,100.32q12.17,2.7,24.4,4.87C189.43,447,190.33,390.59,190.33,390.59Z"/><path class="cls-17" d="M129.18,442.11s2.86-24.49,20.16-49.7,32.47-26.24,39.87-27.6C189.21,364.81,150.81,379.29,129.18,442.11Z"/><path class="cls-17" d="M298.48,368.56s36.12,30.32,53.83,87.21C352.31,455.77,346.23,394.11,298.48,368.56Z"/><g class="cls-14"><path class="cls-16" d="M205.61,377.24c1.23,17.55,24.21,24.3,37.68,24.38,20.44.08,33.06-9.73,36.29-24.2,3.38-15.17-.38-21.45-6-20.39,1.19-.14,3.67.1,4.06,4.2,2.13,22.89-11.7,34.93-33.51,36.63s-35.6-11.24-35.43-28.27c.09-9.69,1.59-12.48,2.86-13.08C211.58,356.51,204.43,360.5,205.61,377.24Z"/></g><path class="cls-17" d="M210.94,391.55s10.3,12.58,32.23,11.91,31.31-10,31.31-10-6.91,12.78-31.31,12.78S210.94,391.55,210.94,391.55Z"/><path class="cls-7" d="M158.58,149.44s-11,29.71-22,44.07c17.45-9.93,43.07-32,54.11-42-7.13,13.5-44.17,38.65-44.17,38.65S182.33,180,206.13,164.8c27.6-17.67,29.81-24.3,29.81-24.3s7.73,8.84-58.52,48.59c52.17-16.43,70.53-27.78,74.31-30.36.67-.46,1.33-.91,2-1.36,5-3.29,23.7-16,27.79-24.64a54,54,0,0,0,7.32,18.38,71.33,71.33,0,0,0,24.68,23.94l35.05,20.66s-14.72-40.78-19.09-59c7.95,22.2,28.21,63.26,30.15,100.1,2.89,55.11-20.14,70.13-63.72,86-57.08,20.85-112.56,13.49-152.46-32.34-8.53-9.77-13.45-25.57-15.35-38.44C119.46,192.81,158.58,149.44,158.58,149.44Z"/><path class="cls-18" d="M199.17,280.86s2.47,4.95,16.15,4.71,40.77-2.69,54.22-6.72,15.91-5.14,20.62-7.61c-6.73,7.16-10.07,8.07-12.54,15s-6.5,21.28-30,26.21S220,294.55,205.91,290.72C198.51,287.59,199.17,280.86,199.17,280.86Z"/><path class="cls-19" d="M271.82,202.73s19.24-12.38,34.92-12.61c7.08.23,16.57,4.65,19.68,7.75,2.45,1.78-2.87-14.58-23.42-14.15C286,185.7,264.51,205.39,271.82,202.73Z"/><path class="cls-19" d="M164.29,189.1s21.2-13.61,50.25,13.37c3.65,4.14-7.19-21-27.91-25.35C175.57,175.49,165.89,183.79,164.29,189.1Z"/><path class="cls-19" d="M325.12,230.74c1.27-1.46,3.25-4.48,4.22-9.89,1.47-8.33-11.9-30-31.83-21.42S271,229.77,269.89,240.18c5.33,6.24,26.73,7.14,33,4.75C319.87,239.88,324.58,231.36,325.12,230.74Z"/><path class="cls-19" d="M178.07,234.22s18.63,7.52,34.91,1.57c0,0,4.6-39.09-24-44.53-14.66-2.76-26.7,6.49-29.11,25.52C157.54,228.84,178.07,234.22,178.07,234.22Z"/><path class="cls-20" d="M161.92,221.05a56.62,56.62,0,0,0,48.45,13.36c1.19-14.87-5.34-36.27-24.06-38.93S162.81,213.3,161.92,221.05Z"/><path class="cls-21" d="M199.51,236.35h0a58.29,58.29,0,0,1-38.22-14.68.86.86,0,0,1-.24-.74c.5-4.45,4-26.59,22-26.59a23.41,23.41,0,0,1,3.39.24c20.18,2.89,25.95,26,24.83,39.9a.88.88,0,0,1-.71.8A57.84,57.84,0,0,1,199.51,236.35Zm-36.64-15.66a56.41,56.41,0,0,0,36.64,13.87h0a55.91,55.91,0,0,0,10-.9c.83-13.31-4.69-34.64-23.37-37.31a21.25,21.25,0,0,0-3.12-.23C167.05,196.12,163.52,215.67,162.87,220.69Z"/><path class="cls-22" d="M201.07,215.67c-.56,10.11-6.88,18.07-14.1,17.82s-12.66-8.64-12.08-18.73S181.76,196.7,189,197,201.61,205.58,201.07,215.67Z"/><path class="cls-23" d="M201.07,215.67c-.56,10.11-6.88,18.07-14.1,17.82s-12.66-8.64-12.08-18.73S181.76,196.7,189,197,201.61,205.58,201.07,215.67Z"/><path class="cls-24" d="M197.85,215.51c-.42,7.3-4.95,13.07-10.2,12.9s-9.15-6.25-8.73-13.55,5-13.08,10.19-12.88S198.26,208.21,197.85,215.51Z"/><g class="cls-25"><path class="cls-26" d="M175.21,211.88c-.14.92-.27,1.9-.32,2.88-.58,10.09,4.84,18.48,12.08,18.73s13.54-7.71,14.1-17.82c.05-.92,0-1.84,0-2.75C192.88,218.13,181.33,219,175.21,211.88Z"/></g><path class="cls-20" d="M186.31,210.75c-.48,3.1-2.67,5.4-4.92,5.1s-3.63-3.08-3.17-6.21,2.67-5.39,4.87-5.09S186.76,207.62,186.31,210.75Z"/><path class="cls-20" d="M183.27,220.4c-.22,1.5-1.25,2.59-2.34,2.44s-1.7-1.47-1.5-3,1.27-2.57,2.33-2.42S183.49,218.94,183.27,220.4Z"/><path class="cls-20" d="M272.83,239.47s6.53-30.62,28.83-37.17c15.16-3.26,22.6,8.92,24.39,19.92C323.37,234.71,307.89,249.28,272.83,239.47Z"/><path class="cls-21" d="M294,243.58a79.72,79.72,0,0,1-21.41-3.27.86.86,0,0,1-.61-1c.27-1.27,6.89-31.21,29.44-37.83a24.41,24.41,0,0,1,5.08-.59c12.54,0,18.83,11.44,20.43,21.21a1.83,1.83,0,0,1,0,.34C324.81,232.17,314.94,243.58,294,243.58Zm-20.1-4.76a76.77,76.77,0,0,0,20.1,3c19.79,0,29.12-10.54,31.14-19.6-1.57-9.47-7.32-19.55-18.64-19.55a22.53,22.53,0,0,0-4.63.53C282.38,208.88,275.11,234,273.88,238.82Z"/><path class="cls-27" d="M278.08,281.09c2.38-3.09,5.82-5.25,9.14-7.62-.06-.27-.24-.44-.75-.15-12.91,8.24-26.92,9.9-41.87,11.57-7.08.82-14.27,1.1-21.42,1.5-6.7.38-14.12,2.2-20-1.12-.81-.73-1.52-1.21-2.37-1.94-.29-.23-.23,0,0,.27,1.39,1.76,2.63,3.82,4.79,4.76a15.31,15.31,0,0,0,2.47.84c7.5,3.93,12.64,11.86,19.55,16.72,7.13,5,14.65,5.26,22.89,3,6.49-1.77,12.15-5.71,16.8-10.47a31.7,31.7,0,0,0,5.37-7.53c1.11-2.16,2.05-4.37,3-6.58A11.48,11.48,0,0,1,278.08,281.09Z"/><path class="cls-27" d="M231.92,237a22,22,0,0,1,1.1,4.59,18.27,18.27,0,0,1,0,4.79c0,.41-.16.78-.21,1.2s-.18.8-.28,1.2a15.45,15.45,0,0,1-.94,2.3l-.69,1.06a7.25,7.25,0,0,1-.81,1,13.51,13.51,0,0,1-1.94,1.65l.08-.08c-.28.45-.81.72-.94,1.24-.08.23-.24.45-.31.7l-.08.75a4.48,4.48,0,0,0,.24,1.57,5.66,5.66,0,0,0,.73,1.53,6.17,6.17,0,0,0,1.05,1.37,8.26,8.26,0,0,0,1.3,1.2,11,11,0,0,0,1.49,1,10.35,10.35,0,0,0,1.61.77,14.07,14.07,0,0,0,1.74.54,8.87,8.87,0,0,0,1.78.33l.92.1.92-.07a7.71,7.71,0,0,0,1.85-.15c.6-.11,1.2-.26,1.84-.35l1.79-.59a8.84,8.84,0,0,0,1.73-.74l1.7-.86a18.41,18.41,0,0,1-3.2,2.14l-1.77.88c-.62.19-1.25.36-1.88.54a8.82,8.82,0,0,1-2,.33l-1,.12-1,0a9.85,9.85,0,0,1-2-.18,9.47,9.47,0,0,1-1.95-.5,10.78,10.78,0,0,1-1.89-.79,12.89,12.89,0,0,1-1.74-1.07,8.55,8.55,0,0,1-1.55-1.38,7,7,0,0,1-1.29-1.66,6.62,6.62,0,0,1-1.24-4.12l.19-1.14a5.53,5.53,0,0,1,.45-1.07l.25-.52.41-.4.78-.83.08-.07A9.12,9.12,0,0,0,229,252a3.71,3.71,0,0,0,.7-.79l.68-.87a12.19,12.19,0,0,0,.94-2,7.43,7.43,0,0,0,.37-1.06c.07-.36.24-.71.28-1.1a15.21,15.21,0,0,0,.29-2.25c0-.77.13-1.51.11-2.3A30.26,30.26,0,0,0,231.92,237Z"/><path class="cls-28" d="M235,238.19s-.16,12.71-3.05,15-1.21,8.95,6.37,3.71S236.76,232.92,235,238.19Z"/><path class="cls-22" d="M315,221.7c.28,10.09-5.34,18.56-12.57,18.91s-13.31-7.57-13.6-17.69,5.39-18.56,12.62-18.9S314.73,211.58,315,221.7Z"/><path class="cls-23" d="M315,221.7c.28,10.09-5.34,18.56-12.57,18.91s-13.31-7.57-13.6-17.69,5.39-18.56,12.62-18.9S314.73,211.58,315,221.7Z"/><path class="cls-24" d="M311.25,222.73c.19,7.17-3.79,13.17-8.94,13.42s-9.46-5.37-9.65-12.55,3.8-13.18,8.92-13.44S311.07,215.54,311.25,222.73Z"/><g class="cls-25"><path class="cls-26" d="M289,220a25.17,25.17,0,0,0-.13,2.9c.29,10.12,6.36,18,13.6,17.69s12.85-8.82,12.57-18.91c0-.94-.11-1.84-.21-2.75C307.05,224.83,295.61,226.64,289,220Z"/></g><path class="cls-20" d="M310.85,213.63c1.2,2,1,4.39-.42,5.27s-3.56-.05-4.76-2.07-1-4.37.41-5.23S309.65,211.63,310.85,213.63Z"/><path class="cls-20" d="M240.55,294c16.31-1.78,22.76-5.34,25.65-11.11-17.26,4-37.94,5.39-48.07,5.82C221.38,291.6,228.13,295.35,240.55,294Z"/><path class="cls-29" d="M231.48,306.79c3.28,1.63,7.75,2.48,14.46,1.47a43.65,43.65,0,0,0,12.92-4.8C244.73,299.05,235.9,303.32,231.48,306.79Z"/><path class="cls-30" d="M276.56,280c-3.21,1.13-6.71,2.08-10.36,3-2.89,5.77-9.34,9.33-25.65,11.11-12.42,1.32-19.17-2.43-22.42-5.29-3.89.17-6.23.19-6.23.19s6.31,5.55,10.7,9.95c2.48,2.46,4.72,5.84,8.88,7.91,4.42-3.47,13.25-7.74,27.38-3.33C270.22,296.77,270.15,286.81,276.56,280Z"/><path class="cls-24" d="M166.9,184.84s20.12-11.93,46.82,13.91C206.66,183.51,182.57,162.08,166.9,184.84Z"/><path class="cls-31" d="M166.9,184.84a18.54,18.54,0,0,1,3-1.38,24.31,24.31,0,0,1,3.14-.94,22.79,22.79,0,0,1,3.2-.57,31.94,31.94,0,0,1,6.58-.14,31.73,31.73,0,0,1,3.25.43,23.65,23.65,0,0,1,3.21.73,24,24,0,0,1,3.17.95l3.07,1.16,3,1.43a21.19,21.19,0,0,1,2.87,1.62l2.81,1.73c.92.6,1.77,1.29,2.63,1.93l2.64,2,4.91,4.35-1.37,1A49.24,49.24,0,0,0,204.5,187a40.83,40.83,0,0,0-11.67-9,22.08,22.08,0,0,0-3.4-1.44,17.44,17.44,0,0,0-3.54-.87,15.48,15.48,0,0,0-3.66-.23,16.37,16.37,0,0,0-3.6.57,18.35,18.35,0,0,0-6.56,3.36,23.41,23.41,0,0,0-2.73,2.56A35.35,35.35,0,0,0,166.9,184.84Zm0,0a34.49,34.49,0,0,1,2.22-3.06,22.79,22.79,0,0,1,2.64-2.74,18.42,18.42,0,0,1,6.6-3.86,18.5,18.5,0,0,1,7.67-.65,21.55,21.55,0,0,1,3.8.81,32.7,32.7,0,0,1,3.63,1.36,35.44,35.44,0,0,1,6.54,4,47.12,47.12,0,0,1,5.72,5.1,47.8,47.8,0,0,1,8.82,12.55.88.88,0,0,1-.45,1.15.93.93,0,0,1-1-.15l0,0L208.35,195l-2.55-1.94c-.84-.64-1.66-1.35-2.56-1.94l-2.71-1.71a24,24,0,0,0-2.78-1.62l-2.84-1.48-3-1.22a20.12,20.12,0,0,0-3-1,23,23,0,0,0-3.11-.81,28,28,0,0,0-3.15-.53c-1.05-.05-2.13-.28-3.19-.25a27,27,0,0,0-3.24,0,31.1,31.1,0,0,0-3.17.37,29.71,29.71,0,0,0-3.13.75A18,18,0,0,0,166.9,184.84Z"/><path d="M272.49,199s30.91-23.42,53-5.09C321.28,178.44,300.53,171.14,272.49,199Z"/><path class="cls-32" d="M272.49,199a66.59,66.59,0,0,1,12.23-7.47,57.87,57.87,0,0,1,13.68-4.61c1.18-.21,2.39-.42,3.6-.54s2.42-.19,3.63-.22,2.44,0,3.66.18a31.47,31.47,0,0,1,3.63.55,26.66,26.66,0,0,1,3.55,1,27,27,0,0,1,3.39,1.41,25.49,25.49,0,0,1,3.22,1.81c1,.6,2,1.43,3,2.14l-1.4.89a24.23,24.23,0,0,0-1.44-3.59,18,18,0,0,0-.95-1.71l-1.13-1.56a10.85,10.85,0,0,0-1.32-1.4,9.63,9.63,0,0,0-1.44-1.27l-1.6-1.1a18.89,18.89,0,0,0-1.75-.85,17.26,17.26,0,0,0-3.68-1.21,26.46,26.46,0,0,0-3.87-.41,30.31,30.31,0,0,0-7.81,1.07,33.09,33.09,0,0,0-3.81,1.21l-3.69,1.56-3.55,1.93a36,36,0,0,0-3.41,2.15c-1.1.75-2.3,1.42-3.35,2.28l-3.21,2.47c-1.1.79-2.05,1.77-3.07,2.62Zm0,0,2.86-2.86c1-.94,1.9-2,3-2.8l3.1-2.64a28.46,28.46,0,0,1,3.27-2.49c1.13-.76,2.18-1.67,3.36-2.3l3.58-2.07,3.7-1.73a38.28,38.28,0,0,1,3.93-1.39,26.43,26.43,0,0,1,4.05-.93,24.53,24.53,0,0,1,8.37.08,19.29,19.29,0,0,1,4,1.28,16.7,16.7,0,0,1,1.9.91l1.8,1.21a9.43,9.43,0,0,1,1.59,1.38,10.76,10.76,0,0,1,1.48,1.54l1.29,1.7c.39.58.68,1.24,1,1.85a21.38,21.38,0,0,1,1.54,4,.84.84,0,0,1-.49,1.08.86.86,0,0,1-.79-.1l-.11-.09a29.44,29.44,0,0,0-2.82-2.06,26.25,26.25,0,0,0-3-1.75,26.83,26.83,0,0,0-3.22-1.37,24.93,24.93,0,0,0-3.33-1,26.67,26.67,0,0,0-3.45-.56c-1.16-.14-2.31-.18-3.5-.22s-2.33,0-3.49.12-2.35.25-3.51.42a59.16,59.16,0,0,0-13.57,4A77.18,77.18,0,0,0,272.49,199Z"/><path class="cls-7" d="M128.05,216.61s-2.89-12.77-14.33-9.72-17.93,19.45-12.2,35.48,22.49,15.81,26.53,8.95C125.92,237.4,128.05,216.61,128.05,216.61Z"/><path class="cls-6" d="M118.62,256.64h0c-6.27,0-14.26-3.67-18-14-3.23-9.09-2.81-19,1.16-26.62,2.74-5.17,6.87-8.72,11.66-10a14.12,14.12,0,0,1,3.59-.49c9.28,0,11.79,10.78,11.83,10.89a.45.45,0,0,1,0,.28c0,.22-2.06,20.85,0,34.5a.8.8,0,0,1-.11.6C127,254.77,123.15,256.64,118.62,256.64Zm-1.54-49.33a11.46,11.46,0,0,0-3.12.43c-4.31,1.14-8,4.39-10.55,9.13-3.77,7.14-4.13,16.55-1,25.19,3.37,9.44,10.6,12.81,16.26,12.81h0c3.75,0,7-1.43,8.47-3.74-1.9-13.23-.13-32.56,0-34.47C126.83,215.46,124.48,207.31,117.08,207.31Z"/><path class="cls-7" d="M360,230.61s.77-15.52,13.84-15,16.84,18,10.84,30.86S360.51,264.45,358.45,257C360.32,249.12,360,230.61,360,230.61Z"/><path class="cls-6" d="M364.37,261.36c-3.58,0-6.05-1.51-6.76-4.15a.82.82,0,0,1,0-.44c1.84-7.66,1.47-26,1.47-26.15s.93-15.87,14.05-15.87h.74a13.56,13.56,0,0,1,11.36,6.87c4.05,6.66,4.17,16.8.24,25.25C381.3,255.82,371.29,261.36,364.37,261.36Zm-5-4.41c.77,2.27,3.42,2.62,5,2.62,6.37,0,15.6-5.15,19.44-13.42,3.64-7.83,3.59-17.52-.13-23.62a11.8,11.8,0,0,0-9.92-6c-12-.55-12.88,13.52-12.9,14.12S361.19,249,359.4,257Z"/><path class="cls-18" d="M106.83,237.46c-1.29-4.14-.66-12.29,4.61-13.66,4.36-.1,7.36,4.28,9,8,1.52,3.51,3.95,9.75,1.29,13.25C116.89,251.39,108.39,242.28,106.83,237.46Z"/><path class="cls-18" d="M381.61,241c1.31-4.12.65-12.29-4.58-13.64-4.38-.11-7.39,4.26-9,8-1.53,3.51-3.93,9.77-1.29,13.25C371.56,254.92,380.08,245.79,381.61,241Z"/><path class="cls-33" d="M141.79,232.5c-4,1.32-4.15,8.43-1.92,14s4.39,6.21,8.84,9.94c2.92,2.47,16.5,6.11,20.76,5.66,7.19-.77,4.63-12.43,2.87-16.34C167.37,234.82,153.34,228.66,141.79,232.5Z"/><path class="cls-33" d="M341.28,244.52c3.76,2,3.37,5.48.67,10.82a24.74,24.74,0,0,1-9.94,11c-3.29,2-18.7,4-22.85,2.86-7-1.92-2.56-13-.19-16.57C315.66,242.69,330.5,238.86,341.28,244.52Z"/><path class="cls-6" d="M235,320.29a27.64,27.64,0,0,0,2.83,1.06,24.64,24.64,0,0,0,2.9.71,19.73,19.73,0,0,0,3.29.31,22.91,22.91,0,0,0,3.34-.18c.53-.11,1.05-.18,1.55-.27s.95-.23,1.37-.31c.89-.16,1.6-.43,2.13-.54l.87-.2-.66.58a10,10,0,0,1-1.87,1.35,14.14,14.14,0,0,1-3,1.28,16,16,0,0,1-1.81.4c-.63,0-1.29.13-1.95.1a12.82,12.82,0,0,1-3.75-.64,10.75,10.75,0,0,1-1.62-.66,9.73,9.73,0,0,1-1.33-.79A8.05,8.05,0,0,1,235,320.29Z"/><path class="cls-8" d="M175.39,178.73s14.83-4.83,30.3,11.24C201.67,181.13,186.22,172.11,175.39,178.73Z"/><path class="cls-8" d="M318.18,185.05s-13.57-7.71-31.93,4.89C292,182.1,308.9,176.38,318.18,185.05Z"/><path class="cls-23" d="M194.59,198.75s-11.46-9.48-24.73,1c-5,2.67-6.44-2.2-6.44-2.2s-.52,8.62,7.62,4.72C177.62,199.12,179.71,194.27,194.59,198.75Z"/><path class="cls-23" d="M294.89,206.25s11.45-9.51,24.73,1c5,2.64,6.43-2.22,6.43-2.22s.52,8.63-7.63,4.7C311.87,206.61,309.79,201.76,294.89,206.25Z"/></g></g></g></g></svg>